<?xml version="1.0" encoding="utf-8"?>
<!-- Generator: Adobe Illustrator 14.0.0, SVG Export Plug-In . SVG Version: 6.00 Build 43363)  -->
<!DOCTYPE svg PUBLIC "-//W3C//DTD SVG 1.1//EN" "http://www.w3.org/Graphics/SVG/1.1/DTD/svg11.dtd">
<svg version="1.1" id="Camada_1" xmlns="http://www.w3.org/2000/svg" xmlns:xlink="http://www.w3.org/1999/xlink" x="0px" y="0px"
	 width="140.863px" height="39.456px" viewBox="0 0 140.863 39.456" enable-background="new 0 0 140.863 39.456"
	 xml:space="preserve">
<g>
	<path d="M140.863,34.456c0,2.75-2.25,5-5,5H5c-2.75,0-5-2.25-5-5V5c0-2.75,2.25-5,5-5h130.863c2.75,0,5,2.25,5,5V34.456z"/>
</g>
<g>
	<g>
		<g>
			<path fill="#FFFFFF" d="M136.091,13.158v-1.205h-0.375l-0.229,0.625l-0.237-0.625h-0.373v1.205h0.279v-0.766h0.003l0.221,0.603
				h0.208l0.22-0.604h0.005v0.768H136.091z M134.733,12.194v-0.241h-0.986v0.243h0.342v0.962h0.303v-0.964H134.733z"/>
			<path fill="#FFFFFF" d="M68.815,15.168v2.713c0,1.108-0.839,1.517-1.83,1.517c-1.021,0-1.861-0.399-1.869-1.53V15.18
				c0.009-1.133,0.814-1.503,1.83-1.503C67.924,13.677,68.805,14.063,68.815,15.168 M80.609,18.278c0,0.676-0.519,1.042-1.156,1.042
				H77.13v-2.006h2.31C80.06,17.314,80.609,17.591,80.609,18.278 M80.469,14.615c0.003,0.646-0.48,0.989-1.093,0.989H77.13v-1.877
				h2.194C79.906,13.728,80.465,13.948,80.469,14.615 M82.937,18.497c0.002-1.001-0.594-1.859-1.568-2.134v-0.025
				c0.879-0.346,1.375-1.12,1.375-2.057c0-1.607-1.266-2.328-2.738-2.328h-5.164v9.167h5.292
				C81.68,21.12,82.933,20.097,82.937,18.497 M100.07,18.278c0-1.447-0.991-2.216-2.301-2.571c-0.631-0.171-3.08-0.386-3.081-1.222
				c0-0.672,1.056-0.887,1.62-0.887c0.718,0,1.478,0.286,1.916,0.874l1.491-1.247c-0.824-1.101-2.13-1.431-3.445-1.427
				c-1.764,0.006-3.842,0.69-3.844,2.957c-0.001,1.028,0.53,1.812,1.459,2.241c0.798,0.37,2.187,0.447,2.997,0.768
				c0.412,0.162,0.837,0.344,0.836,0.849c-0.001,0.708-1.258,0.876-1.813,0.874c-0.891-0.003-1.813-0.429-2.327-1.17l-1.453,1.312
				c0.912,1.246,2.4,1.647,3.883,1.646C97.823,21.271,100.072,20.645,100.07,18.278 M132.822,21.12l-2.979-4.719l2.773-4.448h-2.34
				l-1.843,2.966l-1.842-2.966h-2.521l2.773,4.423l-2.979,4.744h2.417l1.984-3.21l2.035,3.21H132.822z M121.339,17.777v-5.824h-2.25
				v5.772c0,1.144-0.664,1.659-1.778,1.659c-1.128,0-1.804-0.504-1.804-1.672v-5.76h-2.302v5.928c0.01,2.491,1.77,3.394,4.042,3.394
				C119.464,21.274,121.33,20.196,121.339,17.777 M110.473,21.12v-1.877h-4.868v-7.29h-2.289v9.167H110.473z M88.7,11.953h-2.302
				v9.167H88.7V11.953z M59.09,21.12v-9.167h-2.134v5.182H56.93l-3.981-5.182h-2.224v9.167h2.122v-5.387h0.025l4.084,5.387H59.09z
				 M71.116,17.804v-2.547c0-2.437-2.017-3.458-4.195-3.458c-2.165,0-4.095,1.11-4.106,3.483v2.637
				c0.011,2.454,1.996,3.355,4.17,3.355C69.151,21.274,71.106,20.194,71.116,17.804"/>
		</g>
		<g>
			<polygon fill="#FFFFFF" points="64.578,29.333 63.006,29.333 63.006,30.796 64.765,30.796 64.765,31.235 62.476,31.235 
				62.476,27.176 64.675,27.176 64.675,27.616 63.006,27.616 63.006,28.898 64.578,28.898 			"/>
			<path fill="#FFFFFF" d="M68.638,31.235v-4.06h0.579l1.295,2.055c0.295,0.476,0.536,0.903,0.723,1.318l0.018-0.006
				c-0.048-0.542-0.061-1.036-0.061-1.668v-1.699h0.494v4.06h-0.53l-1.289-2.06c-0.283-0.452-0.554-0.915-0.753-1.355l-0.018,0.006
				c0.03,0.512,0.036,1,0.036,1.675v1.734H68.638z"/>
			<path fill="#FFFFFF" d="M78.889,31.056c-0.235,0.09-0.705,0.223-1.253,0.223c-0.614,0-1.12-0.157-1.518-0.536
				c-0.349-0.338-0.566-0.88-0.566-1.512c0-1.211,0.837-2.097,2.198-2.097c0.47,0,0.844,0.103,1.018,0.187l-0.132,0.428
				c-0.217-0.103-0.488-0.175-0.897-0.175c-0.988,0-1.632,0.615-1.632,1.633c0,1.029,0.614,1.638,1.566,1.638
				c0.343,0,0.579-0.048,0.699-0.107v-1.211h-0.819v-0.422h1.337V31.056z"/>
			<polygon fill="#FFFFFF" points="84.973,29.333 83.4,29.333 83.4,30.796 85.159,30.796 85.159,31.235 82.87,31.235 82.87,27.176 
				85.069,27.176 85.069,27.616 83.4,27.616 83.4,28.898 84.973,28.898 			"/>
			<path fill="#FFFFFF" d="M89.032,31.235v-4.06h0.578l1.295,2.055c0.295,0.476,0.536,0.903,0.723,1.318l0.018-0.006
				c-0.048-0.542-0.06-1.036-0.06-1.668v-1.699h0.494v4.06h-0.53l-1.289-2.06c-0.283-0.452-0.554-0.915-0.753-1.355l-0.018,0.006
				c0.03,0.512,0.036,1,0.036,1.675v1.734H89.032z"/>
			<polygon fill="#FFFFFF" points="96.711,27.176 96.711,28.875 98.675,28.875 98.675,27.176 99.205,27.176 99.205,31.235 
				98.675,31.235 98.675,29.333 96.711,29.333 96.711,31.235 96.181,31.235 96.181,27.176 			"/>
			<path fill="#FFFFFF" d="M103.963,29.959l-0.421,1.276H103l1.385-4.06h0.626l1.386,4.06h-0.56l-0.434-1.276H103.963z
				 M105.301,29.549l-0.404-1.168c-0.09-0.265-0.15-0.506-0.21-0.741h-0.012c-0.061,0.235-0.121,0.488-0.206,0.735l-0.397,1.174
				H105.301z"/>
			<path fill="#FFFFFF" d="M110.185,27.229c0.266-0.047,0.65-0.084,1.006-0.084c0.56,0,0.927,0.109,1.174,0.332
				c0.199,0.181,0.32,0.457,0.32,0.776c0,0.53-0.337,0.886-0.759,1.03v0.018c0.307,0.109,0.494,0.398,0.59,0.819
				c0.133,0.566,0.229,0.958,0.313,1.114h-0.542c-0.066-0.12-0.157-0.463-0.265-0.97c-0.121-0.56-0.344-0.771-0.819-0.789h-0.494
				v1.759h-0.524V27.229z M110.709,29.079h0.536c0.561,0,0.916-0.307,0.916-0.771c0-0.523-0.379-0.752-0.933-0.752
				c-0.253,0-0.428,0.018-0.519,0.042V29.079z"/>
			<rect x="116.612" y="27.176" fill="#FFFFFF" width="0.53" height="4.06"/>
			<path fill="#FFFFFF" d="M121.906,29.959l-0.421,1.276h-0.542l1.385-4.06h0.627l1.385,4.06h-0.56l-0.434-1.276H121.906z
				 M123.244,29.549l-0.404-1.168c-0.09-0.265-0.15-0.506-0.211-0.741h-0.012c-0.061,0.235-0.121,0.488-0.205,0.735l-0.398,1.174
				H123.244z"/>
		</g>
	</g>
	<g>
		<g>
			<path fill-rule="evenodd" clip-rule="evenodd" fill="#BBCE00" d="M34.779,18.357V8.178l8.815,5.09L34.779,18.357z M25.965,14.639
				l7.627,4.403L23.59,24.817l-7.628-4.403L25.965,14.639z M5.959,26.188l8.815-5.09v10.18L5.959,26.188z"/>
		</g>
		<g>
			<defs>
				<path id="SVGID_1_" d="M4.771,25.503V13.952l10.002-5.774l10.003,5.774L4.771,25.503z M44.782,13.954v11.549l-10.003,5.775
					l-10.002-5.775L44.782,13.954z"/>
			</defs>
			<clipPath id="SVGID_2_">
				<use xlink:href="#SVGID_1_"  overflow="visible"/>
			</clipPath>
			<linearGradient id="SVGID_3_" gradientUnits="userSpaceOnUse" x1="38.7314" y1="3.0996" x2="10.8221" y2="36.3559">
				<stop  offset="0" style="stop-color:#0AA437"/>
				<stop  offset="0.8" style="stop-color:#B2CB00"/>
				<stop  offset="1" style="stop-color:#BBCE00"/>
			</linearGradient>
			<rect x="4.771" y="8.178" clip-path="url(#SVGID_2_)" fill="url(#SVGID_3_)" width="40.011" height="23.101"/>
		</g>
	</g>
</g>
</svg>
